<svg xmlns="http://www.w3.org/2000/svg" width="1024" height="1003" viewBox="0 0 1024 1003">
  <defs>
    <linearGradient id="a" x1="29.406%" x2="28.468%" y1="34.948%" y2="20.595%">
      <stop stop-color="#FFFFFF" stop-opacity=".04" offset="0%"/>
      <stop stop-color="#FFFFFF" stop-opacity=".06" offset="100%"/>
    </linearGradient>
    <linearGradient id="b" x1="52.006%" x2="52.759%" y1="29.095%" y2="18.712%">
      <stop stop-color="#FFFFFF" stop-opacity=".05" offset="0%"/>
      <stop stop-color="#FFFFFF" stop-opacity=".06" offset="100%"/>
    </linearGradient>
    <linearGradient id="c" x1="50%" x2="44.486%" y1="9.606%" y2="65.616%">
      <stop stop-color="#FFFFFF" stop-opacity=".04" offset="0%"/>
      <stop stop-color="#FFFFFF" stop-opacity=".1" offset="100%"/>
    </linearGradient>
  </defs>
  <g fill="none" fill-rule="evenodd" transform="translate(-172)">
    <polygon fill="url(#a)" points="173 119.04 192 68.2 211 91.76 233 64.48 253 140.12 273 68.2 293 89.28 314 33.48 335 0 353 64.48 372 83.08 393 54.56 412 156.24 431 120.28 453 138.88 473 112.84 493 173.599 534 122.76 553 156.24 575 73.16 592 106.64 615 80.6 633 131.44 653 76.88 673 50.84 691 83.08 713 171.119 734 161.2 752 135.16 773 117.8 793 166.159 814 145.08 834 169.879 852 125.24 872 197.159 893 173.599 912 229.399 932 212.039 953 249.239 971 229.399 993 152.52 1014 204.599 1033 150.04 1054 249.239 1073 212.039 1093 104.16 1113 57.04 1134 88.04 1153 31 1172 4.96 1198 29.76 1198 1023 166.996 1023"/>
    <polygon fill="url(#b)" points="94.715 371 115.963 330 137.211 349 161.814 327 184.181 388 206.548 330 228.914 347 252.399 302 275.884 275 296.014 327 317.262 252 340.747 319 362 279 383.243 372 407.846 387 430.213 366 452.579 415 498.431 374 519.679 401 544.282 334 563.294 361 589.015 340 609.145 381 631.512 337 653.878 316 674.008 342 698.611 413 722.096 405 742.226 384 765.711 370 788.078 409 811.562 392 833.929 412 854.059 376 876.425 434 899.91 375 921.158 460 943.525 446 967.01 426 987.14 420 1011.743 398 1035.228 440 1056.476 396 1079.961 476 1101.209 446 1123.576 359 1145.942 321 1169.427 346 1190.675 300 1211.924 279 1241 299 1241 1100.003 88 1100.003" transform="matrix(-1 0 0 1 1329 0)"/>
    <polygon fill="url(#c)" points="7.489 481 31.189 440 54.888 459 82.329 437 107.276 498 132.222 440 157.169 457 183.363 412 209.556 385 232.008 437 255.708 452 281.901 429 305.601 511 329.3 482 356.741 497 381.688 476 406.634 525 457.775 484 481.474 511 508.915 444 530.12 471 558.808 450 581.26 491 606.207 447 631.153 426 653.605 452 681.046 523 707.24 515 729.692 494 755.886 480 780.832 519 807.026 502 831.973 522 854.425 486 879.371 544 905.565 525 929.264 570 954.211 556 980.405 586 1002.857 570 1030.298 508 1056.492 550 1080.191 506 1106.385 586 1130.084 556 1155.031 469 1179.977 431 1206.171 456 1229.87 410 1253.569 389 1286 409 1286 1210.003 0 1210.003" transform="matrix(-1 0 0 1 1286 0)"/>
  </g>
</svg>
