<svg xmlns="http://www.w3.org/2000/svg" width="299" height="49" viewBox="0 0 299 49" xmlns:xlink="http://www.w3.org/1999/xlink">
  <defs>
    <polygon id="a" points="20.966 .017 41.932 12.113 41.932 36.304 41.932 48.399 20.966 48.399 0 36.304 0 12.113"/>
    <polygon id="d" points="20.921 13.224 -.238 26.052 4.992 34.446 10.54 29.615 15.77 43.552 20.921 49.253 25.943 45.993 31.223 37.692 41.842 28.111 41.842 13.224"/>
    <filter id="c" width="130.9%" height="136.1%" x="-15.4%" y="-15.3%" filterUnits="objectBoundingBox">
      <feOffset dy="1" in="SourceAlpha" result="shadowOffsetOuter1"/>
      <feGaussianBlur stdDeviation="2" in="shadowOffsetOuter1" result="shadowBlurOuter1"/>
      <feComposite in="shadowBlurOuter1" in2="SourceAlpha" operator="out" result="shadowBlurOuter1"/>
      <feColorMatrix values="0 0 0 0 0 0 0 0 0 0 0 0 0 0 0 0 0 0 0.15 0" in="shadowBlurOuter1"/>
    </filter>
    <polygon id="f" points=".238 26.29 5.864 13.541 15.215 32.624 20.921 35.079 26.785 32.624 31.223 23.043 36.374 17.421 42 26.21 42 48.382 20.525 48.462 .238 36.505"/>
    <filter id="e" width="131.1%" height="137.2%" x="-15.6%" y="-21.5%" filterUnits="objectBoundingBox">
      <feOffset dy="-1" in="SourceAlpha" result="shadowOffsetOuter1"/>
      <feGaussianBlur stdDeviation="2" in="shadowOffsetOuter1" result="shadowBlurOuter1"/>
      <feComposite in="shadowBlurOuter1" in2="SourceAlpha" operator="out" result="shadowBlurOuter1"/>
      <feColorMatrix values="0 0 0 0 0 0 0 0 0 0 0 0 0 0 0 0 0 0 0.19 0" in="shadowBlurOuter1"/>
    </filter>
    <polygon id="g" points="41.932 36.304 41.932 48.399 20.966 48.399"/>
  </defs>
  <g fill="none" fill-rule="evenodd">
    <text font-family="Roboto-Light, Roboto" font-size="30" font-weight="300" letter-spacing="8">
      <tspan x="63" y="34" fill="#FFFFFF">QUANTIFY</tspan> <tspan x="266.614" y="34" fill="#7EBFA3">C</tspan> <tspan x="294.097" y="34" fill="#7EBFA3">I</tspan>
    </text>
    <mask id="b" fill="white">
      <use xlink:href="#a"/>
    </mask>
    <use fill="#369C70" xlink:href="#a"/>
    <g mask="url(#b)" transform="matrix(1 0 0 -1 0 62.477)">
      <use fill="black" filter="url(#c)" xlink:href="#d"/>
      <use fill="#FFFFFF" fill-opacity=".45" xlink:href="#d"/>
    </g>
    <g mask="url(#b)">
      <use fill="black" filter="url(#e)" xlink:href="#f"/>
      <use fill="#FFFFFF" fill-opacity=".33" xlink:href="#f"/>
    </g>
    <use fill="#369C70" xlink:href="#g"/>
  </g>
</svg>

