<svg xmlns="http://www.w3.org/2000/svg" width="163" height="40" viewBox="0 0 163 40">
  <g fill="#FFFFFF" fill-rule="evenodd">
    <path d="M6.78861789,10.1694915 L6.78861789,23.7288136 L10.1829268,23.7288136 L10.1829268,10.1694915 L6.78861789,10.1694915 Z M5.09146341,6.77966102 L11.8800813,6.77966102 L16.9715447,6.77966102 L16.9715447,39.8742064 L10.1829268,39.8742064 L10.1829268,27.1186441 L5.09146341,27.1186441 L0,27.1186441 L0,6.77966102 L5.09146341,6.77966102 Z M52.6117886,6.77966102 L57.703252,6.77966102 L57.703252,27.1186441 L52.6117886,27.1186441 L45.8231707,27.1186441 L40.7317073,27.1186441 L40.7317073,13.559322 L45.8231707,13.559322 L50.9146341,13.559322 L50.9146341,10.1694915 L44.1260163,10.1694915 L44.1260163,6.77966102 L52.6117886,6.77966102 Z M84.8577236,27.1186441 L81.4634146,27.1186441 L81.4634146,0 L88.2520325,0 L88.2520325,6.77966102 L91.6463415,6.77966102 L91.6463415,10.1694915 L88.2520325,10.1694915 L88.2520325,23.7288136 L91.6463415,23.7288136 L91.6463415,27.1186441 L84.8577236,27.1186441 Z M125.589431,23.7288136 L125.589431,6.77966102 L118.800813,6.77966102 L118.800813,27.1186441 L123.892276,27.1186441 L128.98374,27.1186441 L128.98374,39.8742064 L135.772358,39.8742064 L135.772358,6.77966102 L128.98374,6.77966102 L128.98374,23.7288136 L125.589431,23.7288136 Z M112.012195,10.1694915 L112.012195,27.1186441 L105.223577,27.1186441 L105.223577,0 L108.617886,0 L115.406504,0 L115.406504,3.38983051 L112.012195,3.38983051 L112.012195,6.77966102 L115.406504,6.77966102 L115.406504,10.1694915 L112.012195,10.1694915 Z M66.1890244,6.77966102 L61.097561,6.77966102 L61.097561,27.1186441 L67.8861789,27.1186441 L67.8861789,10.1694915 L71.6199187,10.1694915 L71.6199187,27.1186441 L78.4085366,27.1186441 L78.4085366,6.77966102 L73.1473577,6.77966102 L66.1890244,6.77966102 Z M47.5203252,16.9491525 L47.5203252,23.7288136 L50.9146341,23.7288136 L50.9146341,16.9491525 L47.5203252,16.9491525 Z M27.1544715,23.7288136 L27.1544715,6.77966102 L20.3658537,6.77966102 L20.3658537,27.1186441 L25.4573171,27.1186441 L32.245935,27.1186441 L37.3373984,27.1186441 L37.3373984,6.77966102 L30.5487805,6.77966102 L30.5487805,23.7288136 L27.1544715,23.7288136 Z M95.0406504,6.77966102 L101.829268,6.77966102 L101.829268,27.1186441 L95.0406504,27.1186441 L95.0406504,6.77966102 Z"/>
    <path fill-opacity=".7" d="M139.166667,0 L145.955285,0 L145.955285,27.1186441 L139.166667,27.1186441 L139.166667,0 Z M156.138211,0 L162.926829,0 L162.926829,27.1186441 L156.138211,27.1186441 L156.138211,0 Z M145.955285,23.7288136 L152.743902,23.7288136 L152.743902,27.1186441 L145.955285,27.1186441 L145.955285,23.7288136 Z M145.955285,0 L152.743902,0 L152.743902,3.38983051 L145.955285,3.38983051 L145.955285,0 Z" opacity=".7"/>
  </g>
</svg>
