<svg xmlns="http://www.w3.org/2000/svg" width="267" height="46" viewBox="0 0 267 46" xmlns:xlink="http://www.w3.org/1999/xlink">
  <defs>
    <polygon id="a" points="19.468 .016 38.937 11.497 38.937 34.46 38.937 45.941 19.468 45.941 0 34.46 0 11.497"/>
    <polygon id="c" points="38.937 34.46 38.937 45.941 19.468 45.941"/>
  </defs>
  <g fill="none" fill-rule="evenodd">
    <path fill="#FFFFFF" d="M70.3996534,23.6595339 C70.3996534,25.4876681 70.0766585,27.0806697 69.4306592,28.4385867 C68.7846599,29.7965036 67.8640148,30.8226164 66.6686963,31.5169558 L70.1623487,34.562366 L69.0417432,35.5643191 L65.1262159,32.1761355 C64.4055091,32.3782849 63.6716297,32.4793581 62.9245557,32.4793581 C61.465564,32.4793581 60.166993,32.1190102 59.0288037,31.3983035 C57.8906145,30.6775967 57.0095198,29.6558784 56.3854932,28.3331179 C55.7614666,27.0103574 55.4450636,25.4832731 55.4362744,23.7518191 L55.4362744,21.6028933 C55.4362744,19.8538611 55.7460858,18.3048043 56.3657178,16.9556765 C56.9853498,15.6065487 57.86205,14.5694497 58.9958448,13.8443484 C60.1296395,13.1192471 61.4304077,12.7567019 62.8981885,12.7567019 C64.3923366,12.7567019 65.7062883,13.1170499 66.840083,13.8377566 C67.9738778,14.5584633 68.850578,15.5911678 69.47021,16.9359011 C70.089842,18.2806344 70.3996534,19.8318884 70.3996534,21.5897097 L70.3996534,23.6595339 Z M68.7780713,21.5765261 C68.7780713,19.2649911 68.2551273,17.4544624 67.2092237,16.1448855 C66.16332,14.8353086 64.7263226,14.18053 62.8981885,14.18053 C61.122789,14.18053 59.7055669,14.8375059 58.6464795,16.1514773 C57.5873922,17.4654487 57.0578565,19.3001472 57.0578565,21.6556277 L57.0578565,23.6595339 C57.0578565,25.9359125 57.5829977,27.7398495 58.6332959,29.0713992 C59.6835942,30.4029488 61.1139998,31.0687136 62.9245557,31.0687136 C64.7526898,31.0687136 66.1852927,30.413935 67.2224073,29.1043581 C68.2595218,27.7947813 68.7780713,25.9666746 68.7780713,23.6199831 L68.7780713,21.5765261 Z M94.9624463,13.0203738 L94.9624463,26.124866 C94.9536572,27.4168646 94.6680155,28.5418534 94.1055127,29.499866 C93.5430099,30.4578786 92.749805,31.1939552 91.7258741,31.7081179 C90.7019432,32.2222806 89.5264178,32.4793581 88.1992627,32.4793581 C86.1777682,32.4793581 84.5583997,31.92785 83.3411084,30.8248171 C82.1238172,29.7217843 81.4932083,28.1946999 81.4492627,26.2435183 L81.4492627,13.0203738 L83.0576612,13.0203738 L83.0576612,26.0062136 C83.0576612,27.6234092 83.5190823,28.8780353 84.4419385,29.7701296 C85.3647947,30.6622239 86.6172236,31.1082644 88.1992627,31.1082644 C89.7813019,31.1082644 91.0315335,30.6600267 91.9499951,29.7635378 C92.8684568,28.867049 93.3276807,27.6190146 93.3276807,26.0193972 L93.3276807,13.0203738 L94.9624463,13.0203738 Z M116.756685,26.83678 L108.042329,26.83678 L106.06479,32.2156863 L104.364106,32.2156863 L111.628267,13.0203738 L113.170747,13.0203738 L120.434907,32.2156863 L118.747407,32.2156863 L116.756685,26.83678 Z M108.543306,25.4525027 L116.242524,25.4525027 L112.392915,14.9979128 L108.543306,25.4525027 Z M144.747212,32.2156863 L143.12563,32.2156863 L132.090962,15.7889285 L132.090962,32.2156863 L130.456196,32.2156863 L130.456196,13.0203738 L132.090962,13.0203738 L143.138814,29.4603152 L143.138814,13.0203738 L144.747212,13.0203738 L144.747212,32.2156863 Z M169.468208,14.4046511 L162.889595,14.4046511 L162.889595,32.2156863 L161.268013,32.2156863 L161.268013,14.4046511 L154.702583,14.4046511 L154.702583,13.0203738 L169.468208,13.0203738 L169.468208,14.4046511 Z M181.743892,32.2156863 L180.12231,32.2156863 L180.12231,13.0203738 L181.743892,13.0203738 L181.743892,32.2156863 Z M204.724653,23.2508425 L195.772993,23.2508425 L195.772993,32.2156863 L194.151411,32.2156863 L194.151411,13.0203738 L206.043013,13.0203738 L206.043013,14.4046511 L195.772993,14.4046511 L195.772993,21.8665652 L204.724653,21.8665652 L204.724653,23.2508425 Z M222.168306,23.4881472 L228.035005,13.0203738 L229.907075,13.0203738 L222.972505,24.9910769 L222.972505,32.2156863 L221.350923,32.2156863 L221.350923,24.9910769 L214.429536,13.0203738 L216.354341,13.0203738 L222.168306,23.4881472 Z M253.111958,26.2303347 C252.89223,28.2518292 252.169337,29.7986887 250.943257,30.8709597 C249.717177,31.9432307 248.084624,32.4793581 246.045552,32.4793581 C244.621717,32.4793581 243.362696,32.1234047 242.268452,31.4114871 C241.174208,30.6995694 240.32827,29.6910346 239.73061,28.3858523 C239.132951,27.08067 238.829732,25.5887415 238.820942,23.9100222 L238.820942,21.418323 C238.820942,19.7132363 239.119768,18.2015327 239.717427,16.8831667 C240.315086,15.5648008 241.174208,14.547477 242.294819,13.8311648 C243.41543,13.1148526 244.705212,12.7567019 246.164204,12.7567019 C248.220855,12.7567019 249.844618,13.3126045 251.035542,14.4244265 C252.226466,15.5362485 252.918598,17.0721218 253.111958,19.0320925 L251.477192,19.0320925 C251.072894,15.771334 249.301915,14.1409792 246.164204,14.1409792 C244.423961,14.1409792 243.0375,14.7913634 242.00478,16.0921511 C240.97206,17.3929389 240.455708,19.1902842 240.455708,21.484241 L240.455708,23.8309206 C240.455708,26.0457755 240.958877,27.8123594 241.96523,29.1307253 C242.971582,30.4490913 244.331676,31.1082644 246.045552,31.1082644 C247.741849,31.1082644 249.020645,30.7017743 249.881978,29.888782 C250.74331,29.0757896 251.275043,27.8563194 251.477192,26.2303347 L253.111958,26.2303347 Z M266.231392,32.2156863 L264.60981,32.2156863 L264.60981,13.0203738 L266.231392,13.0203738 L266.231392,32.2156863 Z"/>
    <mask id="b" fill="white">
      <use xlink:href="#a"/>
    </mask>
    <use fill="#369C70" xlink:href="#a"/>
    <polygon fill="#FFFFFF" fill-opacity=".19" points="19.426 12.552 -.221 24.729 4.636 32.696 9.787 28.111 14.643 41.34 19.426 46.752 24.09 43.657 28.992 35.778 38.853 26.683 38.853 12.552" mask="url(#b)" transform="matrix(1 0 0 -1 0 59.304)"/>
    <polygon fill="#FFFFFF" fill-opacity=".19" points=".221 24.954 5.445 12.853 14.128 30.967 19.426 33.297 24.872 30.967 28.992 21.873 33.775 16.536 39 24.879 39 45.925 19.058 46 .221 34.65" mask="url(#b)"/>
    <path fill="#FFFFFF" fill-rule="nonzero" d="M9.06163718,30.9153555 C9.64238554,31.4322923 10.549812,31.1979752 10.8202879,30.4612339 L15.6032444,17.4330812 L19.6147125,12.8942906 L23.2868827,15.3311951 L28.0609164,23.0034714 C28.1146416,23.0898123 28.1796216,23.1682822 28.2540672,23.2367205 L38.9238786,32.7073088 L38.9238786,30.4612339 L29.8430265,21.6638003 L25.0211357,13.9146136 C24.9362488,13.7781931 24.823636,13.6620123 24.6909334,13.5739489 L20.0277492,10.4793934 C19.5728515,10.1775168 18.9706302,10.2580323 18.6071192,10.6693282 L13.8241004,16.0810929 C13.7312298,16.1861717 13.6585635,16.3081759 13.6099008,16.4407268 L9.31210706,28.1473591 L5.36100433,24.6303961 C4.86941154,24.1928187 4.11557429,24.2835885 3.73707067,24.8259347 L-0.0578253874,30.4612339 L-0.0578253874,33.7263529 L4.8281945,27.1470756 L9.06163718,30.9153555 Z" mask="url(#b)"/>
    <path fill="#FFFFFF" fill-rule="nonzero" d="M13.1369777,31.4631109 C13.2528913,31.704928 13.4496996,31.8963898 13.6918054,32.0028658 L18.9899186,34.3329312 C19.2650806,34.4539451 19.5765798,34.4555135 19.8528963,34.3372762 L25.2981794,32.0072108 C25.5524255,31.8984175 25.7576173,31.6963879 25.8733946,31.44086 L29.9222206,22.5048401 L33.6464187,18.3496065 L39.1904277,25.5873137 L39.1904277,22.5048401 L34.6888176,15.9028824 C34.2885987,15.3004343 33.4426425,15.237629 32.9613446,15.7746319 L28.1783258,21.1112332 C28.1016904,21.1967382 28.0384237,21.2938044 27.9907564,21.3990092 L24.0499817,30.0965529 L19.432326,32.0724722 L14.9399932,30.0967822 L6.43660723,12.3571505 C6.03280716,11.5147491 4.85723455,11.5149894 4.45376461,12.3575558 L-0.0386702721,23.0751634 L-0.0386702721,27.1783919 L5.44578556,15.4178654 L13.1369777,31.4631109 Z" mask="url(#b)"/>
    <use fill="#369C70" xlink:href="#c"/>
  </g>
</svg>
